<?xml version="1.0" standalone="no"?><!DOCTYPE svg PUBLIC "-//W3C//DTD SVG 1.1//EN" "http://www.w3.org/Graphics/SVG/1.1/DTD/svg11.dtd"><svg t="1722933515088" class="icon" viewBox="0 0 1024 1024" version="1.1" xmlns="http://www.w3.org/2000/svg" p-id="1064" xmlns:xlink="http://www.w3.org/1999/xlink" width="200" height="200"><path d="M637.155556 682.666667v227.555555c0 22.755556 22.755556 45.511111 45.511111 45.511111h227.555555c22.755556 0 45.511111-22.755556 45.511111-45.511111v-227.555555c0-22.755556-22.755556-45.511111-45.511111-45.511111h-227.555555c-22.755556 0-45.511111 17.066667-45.511111 45.511111z m-68.266667 0c0-62.577778 51.2-113.777778 113.777778-113.777778h227.555555c62.577778 0 113.777778 51.2 113.777778 113.777778v227.555555c0 62.577778-51.2 113.777778-113.777778 113.777778h-227.555555c-62.577778 0-113.777778-51.2-113.777778-113.777778v-227.555555zM68.266667 682.666667v227.555555c0 22.755556 22.755556 45.511111 45.511111 45.511111h227.555555c22.755556 0 45.511111-22.755556 45.511111-45.511111v-227.555555c0-22.755556-22.755556-45.511111-45.511111-45.511111h-227.555555c-22.755556 0-45.511111 17.066667-45.511111 45.511111z m-68.266667 0c0-62.577778 51.2-113.777778 113.777778-113.777778h227.555555c62.577778 0 113.777778 51.2 113.777778 113.777778v227.555555c0 62.577778-51.2 113.777778-113.777778 113.777778h-227.555555c-62.577778 0-113.777778-51.2-113.777778-113.777778v-227.555555zM637.155556 113.777778v227.555555c0 22.755556 22.755556 45.511111 45.511111 45.511111h227.555555c22.755556 0 45.511111-22.755556 45.511111-45.511111v-227.555555c0-22.755556-22.755556-45.511111-45.511111-45.511111h-227.555555c-22.755556 0-45.511111 17.066667-45.511111 45.511111z m-68.266667 0c0-62.577778 51.2-113.777778 113.777778-113.777778h227.555555c62.577778 0 113.777778 51.2 113.777778 113.777778v227.555555c0 62.577778-51.2 113.777778-113.777778 113.777778h-227.555555c-62.577778 0-113.777778-51.2-113.777778-113.777778v-227.555555zM68.266667 113.777778v227.555555c0 22.755556 22.755556 45.511111 45.511111 45.511111h227.555555c22.755556 0 45.511111-22.755556 45.511111-45.511111v-227.555555c0-22.755556-22.755556-45.511111-45.511111-45.511111h-227.555555c-22.755556 0-45.511111 17.066667-45.511111 45.511111z m-68.266667 0c0-62.577778 51.2-113.777778 113.777778-113.777778h227.555555c62.577778 0 113.777778 51.2 113.777778 113.777778v227.555555c0 62.577778-51.2 113.777778-113.777778 113.777778h-227.555555c-62.577778 0-113.777778-51.2-113.777778-113.777778v-227.555555z" fill="#1296DB" p-id="1065"></path></svg>