<?xml version="1.0" standalone="no"?><!DOCTYPE svg PUBLIC "-//W3C//DTD SVG 1.1//EN" "http://www.w3.org/Graphics/SVG/1.1/DTD/svg11.dtd"><svg t="1722849965000" class="icon" viewBox="0 0 1024 1024" version="1.1" xmlns="http://www.w3.org/2000/svg" p-id="999" xmlns:xlink="http://www.w3.org/1999/xlink" width="200" height="200"><path d="M648.192 345.088A138.24 138.24 0 1 0 512 483.328a138.24 138.24 0 0 0 136.192-138.24z" fill="#27A3FF" p-id="1000"></path><path d="M921.6 0H102.4a102.4 102.4 0 0 0-102.4 102.4v819.2a102.4 102.4 0 0 0 102.4 102.4h819.2a102.4 102.4 0 0 0 102.4-102.4V102.4a102.4 102.4 0 0 0-102.4-102.4z m-111.616 859.648a21.504 21.504 0 0 1-21.504-21.504c0-177.664-118.784-311.808-276.48-311.808s-276.48 134.656-276.48 311.808a22.016 22.016 0 0 1-43.52 0 343.552 343.552 0 0 1 222.208-338.944 181.248 181.248 0 1 1 193.024 0 340.992 340.992 0 0 1 224.768 338.944 21.504 21.504 0 0 1-22.016 21.504z" fill="#27A3FF" p-id="1001"></path></svg>